<svg xmlns="http://www.w3.org/2000/svg" width="16" height="16" fill="none" viewBox="0 0 16 16">
    <path fill="#fff" fill-rule="evenodd" d="M11.336 10.286l3.451 3.466c.292.293.282.76-.021 1.042-.143.133-.33.206-.53.206-.209 0-.404-.08-.55-.226l-3.477-3.492c-.987.67-2.142 1.023-3.354 1.023C3.626 12.305 1 9.769 1 6.652 1 3.536 3.626 1 6.855 1c3.228 0 5.854 2.536 5.854 5.652 0 1.334-.486 2.616-1.373 3.634zm-.154-3.634c0-2.303-1.941-4.177-4.327-4.177S2.527 4.349 2.527 6.652c0 2.304 1.942 4.178 4.328 4.178s4.327-1.874 4.327-4.178z" clip-rule="evenodd"/>
</svg>
